# xmcd
#
# Track frame offsets:
#	150
#	13425
#	27704
#	37365
#	51487
#	67598
#	81811
#	91404
#	104729
#	118902
#	133762
#	146166
#	159979
#	179552
#	193013
#	206134
#
# Disc length: 2920 seconds
#
# Revision: 0
# Processed by: cddbd v1.5.1PL0 Copyright (c) Steve Scherf et al.
# Submitted via: dBpowerAMP V4.0
#
DISCID=fe0b6610
DTITLE=Leadbelly - Midnight Special
DYEAR=2004
DGENRE=Blues
TTITLE0=See See Rider
TTITLE1=Alberta
TTITLE2=I'm Sorry Mama
TTITLE3=Roberta
TTITLE4=Leaving Blues
TTITLE5=I'm On My Last Go Round
TTITLE6=Midnight Special
TTITLE7=Packin' Trunk
TTITLE8=Four Day Worry Blues
TTITLE9=The Bourgeois Blues
TTITLE10=Eagle Rock Rag
TTITLE11=Alabama Bound
TTITLE12=John Hardy
TTITLE13=Pick A Ball Of Cotton
TTITLE14=Ox Drivin' Blues
TTITLE15=Rock Island Line
EXTD=
EXTT0=
EXTT1=
EXTT2=
EXTT3=
EXTT4=
EXTT5=
EXTT6=
EXTT7=
EXTT8=
EXTT9=
EXTT10=
EXTT11=
EXTT12=
EXTT13=
EXTT14=
EXTT15=
PLAYORDER=
